{"title":"Madeas Big Happy Family 2011 TS XViD - DTRG - SAFCuk009","uid":6366510,"size":1159352938,"categoryP":"video","categoryS":"movies","magnet":"?xt=urn:btih:96904f16e38bd75a1bbb08792ee5985d251e79b7&amp;dn=Madeas+Big+Happy+Family+2011+TS+XViD+-+DTRG+-+SAFCuk009&amp;tr=udp%3A%2F%2Ftracker.openbittorrent.com%3A80&amp;tr=udp%3A%2F%2Fopen.demonii.com%3A1337&amp;tr=udp%3A%2F%2Ftracker.coppersurfer.tk%3A6969&amp;tr=udp%3A%2F%2Fexodus.desync.com%3A6969","seeders":2,"leechers":0,"uploader":"SAFCukO09","files":3,"time":1304527411,"description":"Format : AVI\nFormat/Info : Audio Video Interleave\nFile size : 1.08 GiB\nDuration : 1h 45mn\nOverall bit rate : 1 469 Kbps\nWriting application : VirtualDubMod 1.5.10.3 | www.virtualdub-fr.org || (build 2550/release)\nWriting library : VirtualDubMod build 2550/release\n\nVideo\nID : 0\nFormat : MPEG-4 Visual\nFormat profile : Advanced Simple@L5\nFormat settings, BVOP : Yes\nFormat settings, QPel : No\nFormat settings, GMC : No warppoints\nFormat settings, Matrix : Custom\nCodec ID : XVID\nCodec ID/Hint : XviD\nDuration : 1h 45mn\nBit rate : 1 332 Kbps\nWidth : 640 pixels\nHeight : 352 pixels\nDisplay aspect ratio : 16:9\nFrame rate : 23.976 fps\nColor space : YUV\nChroma subsampling : 4:2:0\nBit depth : 8 bits\nScan type : Progressive\nBits/(Pixel*Frame) : 0.247\nStream size : 1 001 MiB (91%)\nWriting library : XviD 1.2.1 (UTC 2008-12-04)\n\nAudio\nID : 1\nFormat : MPEG Audio\nFormat version : Version 1\nFormat profile : Layer 3\nMode : Joint stereo\nMode extension : MS Stereo\nCodec ID : 55\nCodec ID/Hint : MP3\nDuration : 1h 45mn\nBit rate mode : Constant\nBit rate : 128 Kbps\nChannel(s) : 2 channels\nSampling rate : 44.1 KHz\nStream size : 96.3 MiB (9%)\nAlignment : Split accross interleaves\nInterleave, duration : 42 ms (1.00 video frame)\nInterleave, preload duration : 500 ms\nWriting library : LAME3.98r\nEncoding settings : -m j -V 4 -q 2 -lowpass 17 -b 128\n\n\n\n &lt;a href=&quot;\nhttp://www.imdb.com/title/tt1787759/&quot; rel=&quot;nofollow&quot; target=&quot;_NEW&quot;&gt;\nhttp://www.imdb.com/title/tt1787759/&lt;/a&gt;\n\n\n\n\n\n\n\nUsers: 2.4/10 (1,224 votes) 14 reviews | Critics: 19 reviews Metascore: 49/100 (based on 11 reviews from Metacritic.com)\n\nMadea jumps into action when her niece, Shirley, receives distressing news about her health. All Shirley wants is to gather her three adult children around her and share the news as a family... See full summary Ã‚Â»\nDirector:\nTyler Perry\nWriter:\nTyler Perry (screenplay)\nStars:\nTyler Perry, Loretta Devine and Bow Wow\n\n\nSOURCE ...............: Madeas Big Happy Family 2011 Cam LKRG .......... Thanks\n\n\n\nAudio Source .........: IMAGINE ,,,Thanks\n\n\nFew filters nothing special enjoy peeps\n\n\nGreetz to Imagine ,Flawl3ss,DiLLoN,BDK,NOiR,TOXiCiNK,THC,Ez,Rx,Boobyblue,TaRiQ786,LKRG","torrent":{"xt":"urn:btih:96904f16e38bd75a1bbb08792ee5985d251e79b7","amp;dn":"Madeas+Big+Happy+Family+2011+TS+XViD+-+DTRG+-+SAFCuk009","amp;tr":["udp%3A%2F%2Ftracker.openbittorrent.com%3A80","udp%3A%2F%2Fopen.demonii.com%3A1337","udp%3A%2F%2Ftracker.coppersurfer.tk%3A6969","udp%3A%2F%2Fexodus.desync.com%3A6969"],"infoHash":"96904f16e38bd75a1bbb08792ee5985d251e79b7","infoHashBuffer":{"type":"Buffer","data":[150,144,79,22,227,139,215,90,27,187,8,121,46,229,152,93,37,30,121,183]},"announce":[],"urlList":[]}}